#!OML:ASF I:\Actors\actors\Patient Classification 2\Patient 1\Session 1\actor1.ASF
:FULLY-SPECIFIED
:DEGREES
417
root -0.298326 18.5459 4.50164 4.46301 -10.6697 0.108316
lowerback 37.3452 -0.513891 1.66812
upperback 17.0326 -0.184197 4.14844
thorax 0.227425 -0.347747 3.53621
lowerneck -8.80227 -3.44166 0.560525
upperneck 28.3017 -6.25484 4.37058
head 10.6544 -2.30035 0.742381
rclavicle 7.15625e-015 3.37934e-014
rhumerus -26.4064 70.732 -109.038
rradius 146.634
rwrist -2.69319
rhand -45.8137 -44.5346
rfingers 7.12502
rthumb -18.5665 -73.6685
lclavicle 7.15625e-015 3.37934e-014
lhumerus -0.288665 -71.1507 95.6045
lradius 138.77
lwrist 27.0847
lhand -40.1855 -65.995
lfingers 7.12502
lthumb -13.1466 -36.4295
rfemur -12.3677 6.13791 12.1359
rtibia 18.3165
rfoot -16.7754 -8.61779
rtoes -12.7482
lfemur -18.5876 7.45388 -15.8853
ltibia 32.9469
lfoot -19.0968 9.30849
ltoes -56.1176
418
root -0.311177 18.5381 4.49501 3.94065 -11.5559 0.148253
lowerback 38.0746 -0.051962 1.22089
upperback 17.1971 0.227029 4.25107
thorax 0.149141 -0.193872 3.75262
lowerneck -9.26444 -3.33546 -0.343125
upperneck 29.5047 -6.47186 5.88384
head 11.3067 -2.28405 1.41471
rclavicle 3.4191e-014 -3.97569e-015
rhumerus -27.2171 70.8496 -109.474
rradius 147.09
rwrist -3.0722
rhand -45.4649 -44.5029
rfingers 7.12502
rthumb -18.231 -73.6685
lclavicle 3.4191e-014 -3.97569e-015
lhumerus -0.717687 -70.1729 96.2724
lradius 138.719
lwrist 24.8382
lhand -39.4294 -57.8787
lfingers 7.12502
lthumb -12.4177 -28.2675
rfemur -12.0838 6.83641 12.1325
rtibia 18.4533
rfoot -16.622 -8.4472
rtoes -13.076
lfemur -17.8434 8.36237 -15.8378
ltibia 32.9074
lfoot -19.2142 9.12506
ltoes -55.9739
419
root -0.308087 18.5393 4.49732 3.70738 -11.6382 0.286178
lowerback 38.359 -0.176721 1.34868
upperback 17.2329 0.120301 4.25414
thorax 0.10996 -0.241553 3.72561
lowerneck -9.21604 -3.35673 -0.603418
upperneck 29.7099 -6.56845 6.22612
head 11.4042 -2.31256 1.57622
rclavicle 3.4191e-014 3.93594e-014
rhumerus -28.9877 71.5266 -111.022
rradius 147.573
rwrist -3.15893
rhand -45.388 -44.7836
rfingers 7.12502
rthumb -18.157 -73.9562
lclavicle 3.4191e-014 3.93594e-014
lhumerus -1.07704 -68.6326 96.8658
lradius 138.474
lwrist 21.4221
lhand -36.7386 -46.8574
lfingers 7.12502
lthumb -9.82242 -17.1065
rfemur -11.8368 6.91359 11.991
rtibia 18.4018
rfoot -16.6361 -8.41131
rtoes -13.0628
lfemur -17.5135 8.51268 -15.9645
ltibia 32.7626
lfoot -19.1818 9.00744
ltoes -55.8782
420
root -0.306417 18.5459 4.49833 3.50997 -11.7616 0.414145
lowerback 38.6197 -0.296721 1.41306
upperback 17.211 0.00126701 4.25109
thorax 0.0145243 -0.298282 3.72952
lowerneck -9.26963 -3.36741 -0.562462
upperneck 29.9327 -6.60358 6.18008
head 11.5009 -2.32267 1.54911
rclavicle -2.3059e-014 3.29983e-014
rhumerus -27.9695 70.7052 -110.013
rradius 147.727
rwrist -2.52204
rhand -42.9371 -44.7516
rfingers 7.12502
rthumb -15.7978 -74.127
lclavicle -2.3059e-014 3.29983e-014
lhumerus -1.37185 -68.4395 97.2281
lradius 138.438
lwrist 20.9618
lhand -36.6503 -46.4152
lfingers 7.12502
lthumb -9.7373 -16.6603
rfemur -11.5657 7.07015 11.8621
rtibia 18.2022
rfoot -16.6003 -8.43008
rtoes -12.8374
lfemur -17.1707 8.63805 -16.0777
ltibia 32.5337
lfoot -19.1285 8.99084
ltoes -55.8197
421
root -0.303563 18.5551 4.49726 3.43135 -11.9017 0.471411
lowerback 38.7325 -0.44911 1.51202
upperback 17.1565 -0.147358 4.2613
thorax -0.0697189 -0.36752 3.73839
lowerneck -9.40188 -3.37029 -0.409446
upperneck 30.0402 -6.58426 5.93534
head 11.5538 -2.32049 1.4332
rclavicle 1.11319e-014 -6.08281e-014
rhumerus -27.1253 70.1934 -109.247
rradius 148.156
rwrist -3.11465
rhand -41.0362 -45.1631
rfingers 7.12502
rthumb -13.9665 -74.674
lclavicle 1.11319e-014 -6.08281e-014
lhumerus -1.38928 -68.4075 97.3212
lradius 138.43
lwrist 21.1291
lhand -36.4677 -46.4619
lfingers 7.12502
lthumb -9.56105 -16.6988
rfemur -11.3749 7.26787 11.7932
rtibia 17.9009
rfoot -16.5015 -8.53507
rtoes -12.6562
lfemur -16.9417 8.74853 -16.1312
ltibia 32.2782
lfoot -19.0672 9.05739
ltoes -55.8225
422
root -0.298504 18.5643 4.4959 3.46572 -12.1091 0.505475
lowerback 38.7271 -0.567483 1.63339
upperback 17.0332 -0.246628 4.28883
thorax -0.196998 -0.410567 3.73691
lowerneck -9.53932 -3.40601 -0.404801
upperneck 30.0185 -6.63928 5.92597
head 11.5753 -2.34395 1.41895
rclavicle 1.35174e-014 1.11319e-014
rhumerus -27.8403 70.7185 -109.984
rradius 148.362
rwrist -2.26442
rhand -41.5243 -48.9804
rfingers 7.12502
rthumb -14.4368 -78.4582
lclavicle 1.35174e-014 1.11319e-014
lhumerus -1.34732 -68.4298 97.3822
lradius 138.416
lwrist 21.2179
lhand -36.3862 -46.578
lfingers 7.12502
lthumb -9.48241 -16.8113
rfemur -11.2929 7.54868 11.721
rtibia 17.5301
rfoot -16.3926 -8.72982
rtoes -12.5445
lfemur -16.8299 8.85534 -16.1877
ltibia 32.0204
lfoot -19.0284 9.17542
ltoes -55.8421
423
root -0.292138 18.5738 4.49348 3.58661 -12.3959 0.563373
lowerback 38.6121 -0.633634 1.68313
upperback 16.8645 -0.30812 4.31401
thorax -0.344213 -0.438194 3.75684
lowerneck -9.09828 -3.64164 0.291314
upperneck 28.9159 -6.64293 4.67422
head 10.9789 -2.45019 0.844941
rclavicle -4.6118e-014 -5.1684e-014
rhumerus -28.3215 71.1863 -110.509
rradius 148.382
rwrist -1.75603
rhand -42.1801 -49.9304
rfingers 7.12502
rthumb -15.0686 -79.362
lclavicle -4.6118e-014 -5.1684e-014
lhumerus -1.00382 -68.099 97.1618
lradius 138.326
lwrist 20.5668
lhand -36.065 -45.6326
lfingers 7.12502
lthumb -9.17248 -15.8521
rfemur -11.3254 7.88811 11.6016
rtibia 17.1367
rfoot -16.2648 -8.92342
rtoes -12.3804
lfemur -16.8262 8.92368 -16.2927
ltibia 31.8029
lfoot -19.0351 9.36107
ltoes -55.8358
424
root -0.283967 18.5845 4.4909 3.7309 -12.6973 0.662928
lowerback 38.4559 -0.682307 1.70533
upperback 16.6741 -0.357264 4.33694
thorax -0.503702 -0.460327 3.78433
lowerneck -9.03503 -3.74931 0.594214
upperneck 28.4398 -6.67857 4.18198
head 10.7544 -2.50393 0.613753
rclavicle -5.56597e-015 -1.59028e-015
rhumerus -27.9438 71.112 -110.194
rradius 148.318
rwrist -1.45899
rhand -42.0434 -49.5497
rfingers 7.12502
rthumb -14.937 -78.9911
lclavicle -5.56597e-015 -1.59028e-015
lhumerus -0.382064 -67.318 96.7333
lradius 138.019
lwrist 19.0912
lhand -34.8852 -43.7501
lfingers 7.12502
lthumb -8.03393 -13.9228
rfemur -11.4021 8.15904 11.4275
rtibia 16.7527
rfoot -16.0914 -9.05426
rtoes -12.2325
lfemur -16.8706 8.89566 -16.4572
ltibia 31.624
lfoot -19.0907 9.64018
ltoes -55.7658
425
root -0.257857 18.5966 4.49192 4.14999 -12.2988 0.784477
lowerback 37.8693 -1.22583 2.29595
upperback 16.4341 -0.818283 4.33985
thorax -0.555369 -0.642046 3.62304
lowerneck -9.09732 -3.73832 0.556297
upperneck 28.2224 -6.62279 4.10017
head 10.6808 -2.49742 0.596362
rclavicle -4.05521e-014 -5.08889e-014
rhumerus -27.2429 70.9128 -109.504
rradius 148.396
rwrist -1.95198
rhand -41.2766 -46.9872
rfingers 7.12502
rthumb -14.1981 -76.482
lclavicle -4.05521e-014 -5.08889e-014
lhumerus 0.0862365 -67.6608 96.417
lradius 138.083
lwrist 19.7854
lhand -35.8418 -45.6796
lfingers 7.12502
lthumb -8.95717 -15.8897
rfemur -11.6521 7.73422 11.1848
rtibia 16.4207
rfoot -16.0106 -9.19502
rtoes -12.4135
lfemur -17.3757 8.18705 -16.7279
ltibia 31.4876
lfoot -19.0896 9.97682
ltoes -55.6558
426
root -0.248395 18.6032 4.4877 4.36085 -12.4891 0.823688
lowerback 37.6449 -1.3581 2.44965
upperback 16.2651 -0.928029 4.4013
thorax -0.664 -0.688915 3.64073
lowerneck -9.23443 -3.72728 0.519702
upperneck 28.0206 -6.57836 4.0469
head 10.6297 -2.49078 0.585952
rclavicle 2.22639e-014 1.19271e-014
rhumerus -27.4579 71.5581 -109.678
rradius 148.593
rwrist -0.989931
rhand -41.7536 -51.3511
rfingers 7.12502
rthumb -14.6578 -80.813
lclavicle 2.22639e-014 1.19271e-014
lhumerus 0.748509 -67.6111 95.9139
lradius 138.14
lwrist 19.7531
lhand -36.088 -45.7903
lfingers 7.12502
lthumb -9.19473 -16.0108
rfemur -11.8462 7.77482 11.0831
rtibia 16.1914
rfoot -15.8343 -9.20506
rtoes -12.8085
lfemur -17.5545 8.12207 -16.8242
ltibia 31.3876
lfoot -19.147 10.2038
ltoes -55.5611
427
root -0.246313 18.6045 4.48173 4.4486 -12.9292 0.879865
lowerback 37.5203 -1.26973 2.30882
upperback 16.1936 -0.871131 4.50566
thorax -0.707465 -0.676905 3.8042
lowerneck -9.32079 -3.75561 0.494912
upperneck 27.7686 -6.59862 4.04032
head 10.5533 -2.50883 0.58387
rclavicle -1.43125e-014 -3.65764e-014
rhumerus -27.6233 72.2331 -109.794
rradius 147.823
rwrist 0.154773
rhand -43.9197 -49.1573
rfingers 7.12502
rthumb -16.7439 -78.4552
lclavicle -1.43125e-014 -3.65764e-014
lhumerus 1.51118 -67.6199 95.2765
lradius 138.187
lwrist 19.9118
lhand -36.1189 -45.7972
lfingers 7.12502
lthumb -9.22455 -16.019
rfemur -12.0369 8.00881 10.9853
rtibia 16.105
rfoot -15.645 -9.09697
rtoes -12.6992
lfemur -17.5857 8.32526 -16.9045
ltibia 31.3406
lfoot -19.2091 10.3421
ltoes -55.4589
428
root -0.244101 18.6026 4.47606 4.46976 -13.3295 0.947629
lowerback 37.4734 -1.19536 2.16232
upperback 16.1577 -0.830435 4.62656
thorax -0.735794 -0.674726 3.9947
lowerneck -9.35249 -3.81752 0.374284
upperneck 27.584 -6.66787 4.10033
head 10.4987 -2.55017 0.617046
rclavicle 4.21423e-014 -5.48646e-014
rhumerus -26.42 71.9638 -108.627
rradius 148.169
rwrist -0.180295
rhand -42.6057 -48.9278
rfingers 7.12502
rthumb -15.4786 -78.3281
lclavicle 4.21423e-014 -5.48646e-014
lhumerus 2.05779 -68.0759 94.8064
lradius 138.175
lwrist 20.9286
lhand -36.0764 -46.4127
lfingers 7.12502
lthumb -9.1835 -16.6326
rfemur -12.2312 8.22918 10.8853
rtibia 16.1907
rfoot -15.5374 -8.95734
rtoes -12.4845
lfemur -17.5688 8.50924 -16.9918
ltibia 31.3265
lfoot -19.244 10.4238
ltoes -55.3074
429
root -0.242423 18.5992 4.47117 4.46531 -13.7109 1.00296
lowerback 37.5308 -1.16765 2.06884
upperback 16.1173 -0.825579 4.7258
thorax -0.799574 -0.68639 4.14827
lowerneck -9.41826 -3.88886 0.136344
upperneck 27.6209 -6.77292 4.26471
head 10.5431 -2.60152 0.701526
rclavicle 1.59028e-015 5.48646e-014
rhumerus -25.951 71.7975 -108.156
rradius 148.528
rwrist -0.177838
rhand -41.6178 -50.4932
rfingers 7.12502
rthumb -14.5269 -79.9646
lclavicle 1.59028e-015 5.48646e-014
lhumerus 2.19178 -68.3761 94.6819
lradius 138.138
lwrist 21.5477
lhand -36.1174 -46.7528
lfingers 7.12502
lthumb -9.22311 -16.9745
rfemur -12.4837 8.425 10.806
rtibia 16.4561
rfoot -15.4956 -8.79899
rtoes -12.7813
lfemur -17.55 8.74613 -17.0604
ltibia 31.3552
lfoot -19.2814 10.4782
ltoes -55.183
430
root -0.241325 18.594 4.46636 4.40208 -14.0662 1.13419
lowerback 37.6264 -1.156 1.95579
upperback 16.129 -0.849328 4.80151
thorax -0.816552 -0.71253 4.29693
lowerneck -9.4136 -3.93319 -0.156023
upperneck 27.7035 -6.84184 4.46795
head 10.5937 -2.63789 0.814981
rclavicle -1.43125e-014 -1.59028e-015
rhumerus -26.4907 72.0152 -108.627
rradius 148.341
rwrist 0.0746426
rhand -41.9261 -48.722
rfingers 7.12502
rthumb -14.824 -78.1717
lclavicle -1.43125e-014 -1.59028e-015
lhumerus 2.12273 -68.3173 94.7964
lradius 138.138
lwrist 21.6216
lhand -36.1903 -46.7639
lfingers 7.12502
lthumb -9.2934 -16.9887
rfemur -12.7691 8.55876 10.6566
rtibia 16.8768
rfoot -15.4973 -8.58936
rtoes -13.1592
lfemur -17.5158 8.90616 -17.2041
ltibia 31.44
lfoot -19.4067 10.6075
ltoes -55.1697
